<svg width="512" height="512" viewBox="0 0 512 512" xmlns="http://www.w3.org/2000/svg" role="img" aria-label="Beauty and care illustration">
  <defs>
    <linearGradient id="beautyBg" x1="0" y1="0" x2="1" y2="1">
      <stop offset="0%" stop-color="#db4444" />
      <stop offset="100%" stop-color="#f472b6" />
    </linearGradient>
    <linearGradient id="beautyBottle" x1="0" y1="0" x2="0" y2="1">
      <stop offset="0%" stop-color="#ffffff" />
      <stop offset="100%" stop-color="#fde68a" />
    </linearGradient>
  </defs>
  <rect width="512" height="512" rx="72" fill="url(#beautyBg)" />
  <circle cx="152" cy="180" r="52" fill="#fff" opacity="0.18" />
  <circle cx="360" cy="140" r="34" fill="#fff" opacity="0.14" />
  <rect x="168" y="132" width="84" height="226" rx="28" fill="url(#beautyBottle)" />
  <rect x="184" y="100" width="52" height="42" rx="18" fill="#fff" />
  <rect x="288" y="162" width="84" height="196" rx="28" fill="#fff" opacity="0.88" />
  <rect x="306" y="136" width="48" height="38" rx="14" fill="#fff" />
  <path d="M130 364c28-18 60-28 96-28s68 10 96 28" fill="none" stroke="#fff" stroke-width="18" stroke-linecap="round" opacity="0.8" />
  <path d="M306 364c24-12 46-18 70-18 18 0 34 4 48 10" fill="none" stroke="#111827" stroke-width="10" stroke-linecap="round" opacity="0.45" />
</svg>
